{"title":"Thanks for Sharing 2012 BRRip XviD titler","uid":9392417,"size":1205677306,"categoryP":"video","categoryS":"movies","magnet":"?xt=urn:btih:7debefa26885a5e62d7ed7a8fa1955365252ccb2&amp;dn=Thanks+for+Sharing+2012+BRRip+XviD+titler&amp;tr=udp%3A%2F%2Ftracker.openbittorrent.com%3A80&amp;tr=udp%3A%2F%2Fopen.demonii.com%3A1337&amp;tr=udp%3A%2F%2Ftracker.coppersurfer.tk%3A6969&amp;tr=udp%3A%2F%2Fexodus.desync.com%3A6969","seeders":1,"leechers":0,"uploader":"movieZ.freak","files":4,"time":1387908402,"description":"SOURCE: Thanks For Sharing 2012 LiMiTED 720p BluRay x264 - GECKOS\n\n\n &lt;a href=&quot;\nhttp://www.imdb.com/title/tt1932718/&quot; rel=&quot;nofollow&quot; target=&quot;_NEW&quot;&gt;\nhttp://www.imdb.com/title/tt1932718/&lt;/a&gt;\n\n\n &lt;a href=&quot;\nhttp://en.wikipedia.org/wiki/Thanks_for_Sharing&quot; rel=&quot;nofollow&quot; target=&quot;_NEW&quot;&gt;\nhttp://en.wikipedia.org/wiki/Thanks_for_Sharing&lt;/a&gt;\n\n\n\n- SAMPLE: Yes\n\n- SUBTITLE: English\n\n- LANGUAGE / AUDIO: English\n\n\n\n\nSCREENSHOTS:\n------------------- &lt;a href=&quot;\nhttp://someimage.com/4Ak4&quot; rel=&quot;nofollow&quot; target=&quot;_NEW&quot;&gt;\nhttp://someimage.com/4Ak4&lt;/a&gt;\n\n\n\n\nDIRECTOR: Stuart Blumberg\n\n\n\nCAST: Mark Ruffalo, Gwyneth Paltrow, Tim Robbins, Joely Richardson, Pink, Josh Gad, Isiah Whitlock Jr., Carol Kane, Patrick Fugit,...\n\n\n\nPLOT:\n-----------\nOn the surface Adam (Ruffalo), an over-achieving environmental consultant, Mike (Robbins), a long-married small-business owner, and Neil (Gad), a wisecracking emergency-room doctor, have little in common. But all are in different stages of dealing with addiction. Confident and successful in his career, Adam is afraid to allow love back into his life, even if that means losing a chance to start over with smart, beautiful and accomplished Phoebe (Paltrow); Mike's efforts to control his wife, Katie (Richardson), and son, Danny (Fugit), as tightly as he does his impulses are tearing the family apart; and Neil is still deeply in denial when befriended by Dede (Moore), who has just begun to take her own small steps back to health.. As they navigate the rocky shores of recovery, Adam, Mike and Neil become a family that encourages, infuriates and applauds each other on the journey toward a new life.\n\n\n*****************************\n\n- Duration: 1h 52mn\n\n- Bit rate: 1255 Kbps\n\n- Res: 640 x 360\n\n- AR: 16:9\n\n- FPS: 23.976\n\n- Audio: AC-3, 128Kbps, 2 channels\n\n*****************************\n\n\nGeneral\n-------------\nFormat : AVI\nFormat/Info : Audio Video Interleave\nFile size : 1.10 GiB\nDuration : 1h 52mn\nOverall bit rate : 1392 Kbps\nWriting library : VirtualDub build 35491\n\n\nVideo\n------------\nFormat : MPEG-4 Visual\nFormat profile : Advanced Simple@L5\nFormat settings, BVOP : 2\nFormat settings, QPel : No\nFormat settings, GMC : No warppoints\nFormat settings, Matrix : Default (H.263)\nCodec ID : XVID\nCodec ID/Hint : XviD\nDuration : 1h 52mn\nBit rate : 1255 Kbps\nWidth : 640 pixels\nHeight : 360 pixels\nDisplay aspect ratio : 16:9\nFrame rate : 23.976 fps\nColor space : YUV\nChroma subsampling : 4:2:0\nBit depth : 8 bits\nScan type : Progressive\nCompression mode : Lossy\nBits/(Pixel*Frame) : 0.227\nStream size : 1 011 MiB (90%)\nWriting library : XviD 65\n\n\nAudio\n---------\nFormat : AC-3\nFormat/Info : Audio Coding 3\nMode extension : CM (complete main)\nFormat settings, Endianness : Big\nCodec ID : 2000\nDuration : 1h 52mn\nBit rate mode : Constant\nBit rate : 128 Kbps\nChannel(s) : 2 channels\nChannel positions : Front: L R\nSampling rate : 48.0 KHz\nBit depth : 16 bits\nCompression mode : Lossy\nStream size : 103 MiB (9%)\nAlignment : Aligned on interleaves\nInterleave, duration : 42 ms (1.00 video frame)\nInterleave, preload duration : 512 ms","torrent":{"xt":"urn:btih:7debefa26885a5e62d7ed7a8fa1955365252ccb2","amp;dn":"Thanks+for+Sharing+2012+BRRip+XviD+titler","amp;tr":["udp%3A%2F%2Ftracker.openbittorrent.com%3A80","udp%3A%2F%2Fopen.demonii.com%3A1337","udp%3A%2F%2Ftracker.coppersurfer.tk%3A6969","udp%3A%2F%2Fexodus.desync.com%3A6969"],"infoHash":"7debefa26885a5e62d7ed7a8fa1955365252ccb2","infoHashBuffer":{"type":"Buffer","data":[125,235,239,162,104,133,165,230,45,126,215,168,250,25,85,54,82,82,204,178]},"announce":[],"urlList":[]}}